<?xml version="1.0" encoding="utf-8"?>
<svg viewBox="0 0 500 500" xmlns="http://www.w3.org/2000/svg">
  <ellipse style="stroke: rgb(48, 63, 159); stroke-width: 5px; fill: rgb(240, 248, 255);" cx="250" cy="250" rx="250" ry="250"/>
  <path d="M 316.548 218.188 L 182.938 218.188 C 183.323 212.404 184.577 205.849 186.697 198.522 C 188.818 191.196 192.481 184.255 197.687 177.7 C 202.893 171.145 209.833 165.65 218.509 161.216 C 227.185 156.781 238.079 154.564 251.189 154.564 C 271.24 154.564 286.182 159.962 296.015 170.759 C 305.848 181.556 312.692 197.366 316.548 218.188 Z M 182.938 270.244 L 398.681 270.244 C 400.223 247.108 398.295 224.936 392.897 203.728 C 387.499 182.52 378.726 163.626 366.58 147.045 C 354.433 130.464 338.913 117.257 320.019 107.424 C 301.124 97.592 278.952 92.675 253.503 92.675 C 230.752 92.675 210.026 96.724 191.325 104.822 C 172.623 112.919 156.524 124.005 143.028 138.08 C 129.532 152.154 119.121 168.831 111.795 188.111 C 104.468 207.391 100.805 228.214 100.805 250.578 C 100.805 273.714 104.372 294.922 111.505 314.202 C 118.639 333.482 128.761 350.063 141.871 363.945 C 154.982 377.826 170.984 388.527 189.879 396.046 C 208.773 403.565 229.981 407.325 253.503 407.325 C 287.435 407.325 316.355 399.613 340.263 384.189 C 364.17 368.765 381.907 343.122 393.475 307.262 L 321.175 307.262 C 318.476 316.516 311.15 325.288 299.196 333.579 C 287.243 341.869 272.975 346.014 256.395 346.014 C 233.259 346.014 215.521 340.038 203.182 328.084 C 190.843 316.13 184.095 296.85 182.938 270.244 Z" style="fill: rgb(48, 63, 159); white-space: pre;"/>
</svg>