<?xml version="1.0" encoding="utf-8"?>
<svg viewBox="0 0 24 24" fill="#000000" xmlns="http://www.w3.org/2000/svg">
  <ellipse style="stroke: rgb(48, 63, 159); fill: rgb(240, 248, 255);" cx="12" cy="12" rx="11.449" ry="11.449"/>
  <g>
    <rect fill="none" height="24" width="24"/>
  </g>
  <g style="" transform="matrix(0.856672, -0.169962, 0.169962, 0.856672, -0.359416, 2.999187)">
    <path d="M12,3c-4.97,0-9,4.03-9,9v7c0,1.1,0.9,2,2,2h4v-8H5v-1c0-3.87,3.13-7,7-7s7,3.13,7,7v1h-4v8h4c1.1,0,2-0.9,2-2v-7 C21,7.03,16.97,3,12,3z M7,15v4H5v-4H7z M19,19h-2v-4h2V19z" style="fill: rgb(48, 63, 159);"/>
  </g>
</svg>